<svg version="1" xmlns="http://www.w3.org/2000/svg" width="400" height="400" viewBox="0 0 300.000000 300.000000"><path d="M87.8 88.5l-.3 44.6-30.5.2-30.5.2-.3 2.5c-.2 1.8.8 3.7 3.9 6.8 2.3 2.3 4.8 4.2 5.5 4.2.7 0 3.5 2.6 6.3 5.7s7.2 6.8 9.7 8.2c4.6 2.5 4.8 2.9 8.2 12.6 1.9 5.5 3.8 10.5 4.3 11.1.5.6 4.2 2.8 8.2 4.8 3.9 2 8.3 4.3 9.7 5.1 5.8 3.4 10 .1 11.4-8.6.4-2.5 1.3-4.2 2.4-4.5.9-.3 2.7-1 3.8-1.6 1.4-.6 5-.7 9.3-.3 5.9.6 7.5 1.1 8.7 2.9.8 1.3 3.4 3.7 5.8 5.4 3 2.2 5.3 5.1 7.5 9.4 1.7 3.5 3.1 6.7 3.1 7.1 0 .4 1.1 2.4 2.3 4.5 5.3 8.3 17.5 30.9 18.6 34.4 1 3 2.2 4.2 6.4 6.2 2.8 1.4 6.2 2.6 7.6 2.6 1.5.1 5.1.9 8.1 2 7.1 2.5 15 2.7 15 .4 0-.9-.6-2.2-1.3-2.8-.8-.6-2.1-4-3.1-7.5-2.7-10.4-.6-18.9 7.4-28.9 2.3-3 3.9-5.7 3.5-6-.3-.4.9-1.2 2.7-1.8 2.1-.7 3.3-1.7 3.3-2.9 0-1 .6-2 1.4-2.3.9-.3 1.1.1.6 1.7-.9 2.8-.4 2.7 7.3-1.6 7.5-4.2 13.2-8.9 13.2-10.8 0-.8.9-1.7 2.1-2 1.6-.6 2-1.4 1.7-4.3-.2-2.2.2-3.7 1-4 1.1-.3 1.6 1.2 1.5 4.6-.1 1.6 2.1 1 10.4-2.8 3.4-1.5 6.7-3.8 7.3-5 1.4-2.5 4-18.6 4-24.5 0-2.7-1.3-6.5-4.1-12l-4.1-8-.5-16.2-.5-16.2-6.7-2.5c-3.6-1.3-8.8-2.7-11.6-3.1-7.1-1-25.4-.6-27.5.5-1.3.7-2.1.5-3-.5-.7-.8-2.2-1.5-3.4-1.5-1.2 0-6.6-.9-12-2.1-5.4-1.1-10.9-1.8-12.1-1.5-1.3.3-2.7.2-3-.4-.3-.5-2-1-3.6-1-3.1 0-13.4-3.2-18.1-5.6l-2.8-1.5V44H88l-.2 44.5zm86.5 78.9c8.8 3.6 11.6 14.2 5.7 21-4 4.5-8.6 6.1-13.8 4.7-13.1-3.6-13.6-21.4-.7-25.9 4.1-1.4 5.1-1.4 8.8.2z"/></svg>