<?xml version="1.0" standalone="no"?>
<!DOCTYPE svg PUBLIC "-//W3C//DTD SVG 20010904//EN"
 "http://www.w3.org/TR/2001/REC-SVG-20010904/DTD/svg10.dtd">
<svg version="1.0" xmlns="http://www.w3.org/2000/svg"
 width="748.000000pt" height="748.000000pt" viewBox="0 0 748.000000 748.000000"
 preserveAspectRatio="xMidYMid meet">
<metadata>
Created by potrace 1.11, written by Peter Selinger 2001-2013
</metadata>
<g transform="translate(0.000000,748.000000) scale(0.100000,-0.100000)"
fill="#000000" stroke="none">
<path d="M398 7454 c-185 -44 -329 -189 -373 -376 -22 -95 -22 -6581 0 -6676
45 -189 188 -332 377 -377 95 -22 6581 -22 6676 0 189 45 332 188 377 377 13
55 15 485 15 3338 0 2853 -2 3283 -15 3338 -45 189 -188 332 -377 377 -92 21
-6591 21 -6680 -1z m2295 -1448 c209 -40 380 -199 443 -411 24 -81 24 -239 0
-319 -31 -106 -74 -176 -155 -256 -42 -42 -99 -88 -128 -103 -117 -62 -304
-84 -442 -52 -194 46 -358 203 -417 400 -27 89 -25 249 3 340 92 295 381 461
696 401z m1368 -15 c62 -20 149 -70 214 -124 l29 -25 -64 -73 c-35 -41 -65
-76 -67 -78 -1 -2 -21 13 -45 33 -222 191 -537 111 -619 -157 -17 -55 -20 -86
-17 -155 7 -124 35 -191 112 -268 84 -84 147 -107 271 -102 106 5 160 26 248
95 l59 46 66 -67 67 -66 -49 -43 c-66 -57 -160 -114 -221 -133 -69 -22 -240
-30 -317 -15 -198 39 -368 195 -430 396 -26 83 -30 239 -9 325 53 214 219 377
433 425 86 20 252 13 339 -14z m1229 -554 l248 -568 -110 3 -110 3 -55 133
-56 132 -264 -2 -265 -3 -56 -132 -56 -133 -103 0 c-57 0 -103 3 -103 6 0 4
111 260 246 571 l247 564 94 -3 95 -3 248 -568z m-3930 88 l0 -475 295 0 295
0 0 -90 0 -90 -400 0 -400 0 0 565 0 565 105 0 105 0 0 -475z m4500 0 l0 -475
295 0 295 0 0 -90 0 -90 -400 0 -400 0 0 565 0 565 105 0 105 0 0 -475z
m-1879 -1934 c20 -20 29 -39 29 -61 0 -22 -9 -41 -29 -61 -20 -20 -39 -29 -61
-29 -43 0 -90 47 -90 90 0 22 9 41 29 61 20 20 39 29 61 29 22 0 41 -9 61 -29z
m-2071 -986 c74 -16 232 -86 279 -124 l24 -19 -97 -136 c-54 -75 -100 -136
-102 -136 -2 0 -32 15 -66 34 -87 48 -189 76 -275 78 -79 2 -103 -9 -103 -49
0 -32 37 -47 204 -83 254 -55 373 -119 434 -234 24 -46 27 -62 27 -151 0 -93
-2 -105 -32 -166 -39 -78 -97 -136 -182 -179 -103 -52 -173 -63 -361 -57 -180
5 -266 23 -385 76 -87 40 -188 110 -181 126 3 8 51 68 107 134 l102 121 31
-21 c162 -108 460 -160 489 -85 17 44 -5 54 -221 106 -253 61 -363 123 -419
238 -24 50 -28 68 -28 147 0 80 4 97 31 155 62 131 175 208 350 240 71 13 287
4 374 -15z m997 -140 c48 -80 107 -175 129 -211 l41 -66 129 211 128 211 210
-2 211 -3 3 -602 2 -603 -205 0 -205 0 -2 289 -3 289 -130 -201 c-71 -110
-135 -202 -141 -204 -5 -2 -68 87 -140 198 l-129 202 -3 -287 -2 -286 -200 0
-200 0 0 605 0 605 209 0 210 0 88 -145z m2121 -32 l2 -173 -180 0 -180 0 0
-430 0 -430 -205 0 -205 0 0 430 0 430 -175 0 -175 0 0 175 0 175 558 -2 557
-3 3 -172z m628 50 c42 -71 83 -134 89 -141 9 -10 29 16 96 125 l84 138 228 3
c125 1 227 0 227 -3 0 -3 -86 -135 -192 -292 -105 -158 -191 -292 -191 -298 0
-6 90 -146 201 -313 l202 -302 -234 0 -233 0 -88 146 c-49 80 -92 147 -96 150
-4 2 -49 -63 -99 -146 l-92 -150 -229 0 -229 0 204 306 204 306 -194 294
c-107 162 -194 297 -194 299 0 3 103 5 229 5 l230 0 77 -127z"/>
<path d="M2449 5815 c-157 -50 -259 -200 -259 -381 0 -230 158 -395 378 -393
172 2 302 98 353 262 27 87 23 203 -10 290 -32 81 -112 166 -193 202 -77 35
-196 44 -269 20z"/>
<path d="M4937 5743 c-9 -15 -177 -412 -177 -417 0 -3 83 -6 185 -6 102 0 185
2 185 3 0 6 -180 421 -184 425 -2 2 -6 0 -9 -5z"/>
</g>
</svg>
