<?xml version="1.0" standalone="no"?>
<!DOCTYPE svg PUBLIC "-//W3C//DTD SVG 20010904//EN"
 "http://www.w3.org/TR/2001/REC-SVG-20010904/DTD/svg10.dtd">
<svg version="1.0" xmlns="http://www.w3.org/2000/svg"
 width="320.000000pt" height="320.000000pt" viewBox="0 0 320.000000 320.000000"
 preserveAspectRatio="xMidYMid meet">
<metadata>
Created by potrace 1.11, written by Peter Selinger 2001-2013
</metadata>
<g transform="translate(0.000000,320.000000) scale(0.100000,-0.100000)"
fill="#000000" stroke="none">
<path d="M0 1600 l0 -1600 1600 0 1600 0 0 1600 0 1600 -1600 0 -1600 0 0
-1600z m1175 969 c102 -28 176 -127 176 -238 1 -100 -45 -178 -131 -225 -43
-23 -66 -29 -119 -29 -106 0 -186 47 -234 138 -30 57 -30 165 1 222 59 112
183 166 307 132z m566 -4 c24 -8 57 -26 73 -39 l29 -23 -27 -36 -28 -36 -36
27 c-30 23 -45 27 -103 27 -58 0 -71 -3 -94 -25 -40 -37 -56 -75 -57 -130 0
-59 26 -115 65 -144 45 -33 132 -29 185 8 l42 29 25 -27 c14 -15 25 -31 25
-36 0 -18 -90 -70 -139 -81 -191 -41 -347 139 -289 332 20 70 91 136 168 160
42 12 114 10 161 -6z m416 3 c6 -7 27 -53 48 -103 36 -85 88 -204 141 -323 13
-29 24 -55 24 -57 0 -3 -22 -5 -48 -5 l-49 0 -24 60 -24 60 -111 0 -111 0 -26
-60 -26 -60 -46 0 c-41 0 -46 2 -40 18 3 9 52 122 108 250 l102 232 36 0 c20
0 41 -6 46 -12z m-1567 -198 l0 -200 125 0 125 0 0 -45 0 -45 -172 2 -173 3
-3 243 -2 242 50 0 50 0 0 -200z m1920 0 l0 -200 125 0 125 0 0 -45 0 -45
-172 2 -173 3 -3 243 -2 242 50 0 50 0 0 -200z m-800 -841 c15 -27 -5 -51 -39
-47 -26 3 -38 26 -27 54 8 22 54 17 66 -7z m-817 -433 c31 -16 57 -31 57 -34
0 -4 -82 -122 -85 -122 0 0 -20 9 -44 21 -23 11 -65 23 -92 26 -40 5 -49 3
-49 -10 0 -21 5 -24 87 -41 140 -29 193 -76 193 -172 0 -125 -138 -198 -313
-165 -67 12 -171 61 -174 82 -2 8 17 36 41 63 l43 49 49 -24 c61 -29 174 -40
174 -16 0 17 -5 19 -103 41 -119 28 -172 68 -182 141 -12 78 42 160 123 186
15 4 70 7 122 6 83 -2 104 -6 153 -31z m340 -13 c13 -21 37 -60 54 -86 l30
-48 52 85 53 86 94 0 94 0 0 -260 0 -260 -90 0 -90 0 0 123 0 122 -51 -80
c-28 -44 -54 -84 -58 -88 -4 -4 -32 32 -62 79 l-54 87 -3 -121 -3 -122 -89 0
-90 0 0 260 0 260 95 0 95 0 23 -37z m917 -38 l0 -75 -75 0 -75 0 0 -185 0
-185 -90 0 -90 0 0 185 0 185 -75 0 -75 0 0 75 0 75 240 0 240 0 0 -75z m272
20 c18 -30 36 -55 39 -55 4 0 12 12 18 28 6 15 21 40 34 55 22 27 23 28 118
25 l97 -3 -79 -118 c-43 -65 -79 -123 -79 -129 0 -12 151 -241 162 -246 5 -2
6 -8 2 -13 -3 -5 -49 -9 -102 -9 l-97 0 -39 66 -39 66 -41 -66 -41 -66 -97 0
c-54 0 -98 2 -98 5 0 3 39 63 86 134 l86 129 -81 121 c-45 66 -81 123 -81 126
0 3 45 5 99 5 l100 0 33 -55z"/>
<path d="M1013 2469 c-38 -24 -73 -92 -73 -141 0 -145 166 -222 265 -123 78
78 64 209 -27 265 -44 27 -122 27 -165 -1z"/>
<path d="M2097 2420 c-41 -93 -57 -132 -57 -136 0 -2 34 -4 75 -4 85 0 83 -11
27 110 l-30 65 -15 -35z"/>
</g>
</svg>
